HIERARCHY
ROOT Hips
{
	OFFSET 0.00000 0.00000 0.00000
	CHANNELS 6 Xposition Yposition Zposition Zrotation Yrotation Xrotation 
	JOINT LHipJoint
	{
		OFFSET 0 0 0
		CHANNELS 3 Zrotation Yrotation Xrotation
		JOINT LeftUpLeg
		{
			OFFSET 1.57093 -1.69714 0.87455
			CHANNELS 3 Zrotation Yrotation Xrotation
			JOINT LeftLeg
			{
				OFFSET 2.48056 -6.81529 0.00000
				CHANNELS 3 Zrotation Yrotation Xrotation
				JOINT LeftFoot
				{
					OFFSET 2.62558 -7.21374 0.00000
					CHANNELS 3 Zrotation Yrotation Xrotation
					JOINT LeftToeBase
					{
						OFFSET 0.17911 -0.49210 2.16707
						CHANNELS 3 Zrotation Yrotation Xrotation
						End Site
						{
							OFFSET 0.00000 -0.00000 1.11848
						}
					}
				}
			}
		}
	}
	JOINT RHipJoint
	{
		OFFSET 0 0 0
		CHANNELS 3 Zrotation Yrotation Xrotation
		JOINT RightUpLeg
		{
			OFFSET -1.69739 -1.69715 0.87455
			CHANNELS 3 Zrotation Yrotation Xrotation
			JOINT RightLeg
			{
				OFFSET -2.33658 -6.41972 0.00000
				CHANNELS 3 Zrotation Yrotation Xrotation
				JOINT RightFoot
				{
					OFFSET -2.60856 -7.16696 0.00000
					CHANNELS 3 Zrotation Yrotation Xrotation
					JOINT RightToeBase
					{
						OFFSET -0.20854 -0.57296 2.11053
						CHANNELS 3 Zrotation Yrotation Xrotation
						End Site
						{
							OFFSET -0.00000 -0.00000 1.09848
						}
					}
				}
			}
		}
	}
	JOINT LowerBack
	{
		OFFSET 0 0 0
		CHANNELS 3 Zrotation Yrotation Xrotation
		JOINT Spine
		{
			OFFSET 0.02563 2.15732 -0.03270
			CHANNELS 3 Zrotation Yrotation Xrotation
			JOINT Spine1
			{
				OFFSET 0.00281 2.14662 0.09285
				CHANNELS 3 Zrotation Yrotation Xrotation
				JOINT Neck
				{
					OFFSET 0 0 0
					CHANNELS 3 Zrotation Yrotation Xrotation
					JOINT Neck1
					{
						OFFSET -0.04440 1.68397 0.17601
						CHANNELS 3 Zrotation Yrotation Xrotation
						JOINT Head
						{
							OFFSET 0.06040 1.66995 -0.35615
							CHANNELS 3 Zrotation Yrotation Xrotation
							End Site
							{
								OFFSET 0.02405 1.72189 -0.14044
							}
						}
					}
				}
				JOINT LeftShoulder
				{
					OFFSET 0 0 0
					CHANNELS 3 Zrotation Yrotation Xrotation
					JOINT LeftArm
					{
						OFFSET 2.98955 1.90907 -0.21660
						CHANNELS 3 Zrotation Yrotation Xrotation
						JOINT LeftForeArm
						{
							OFFSET 4.91377 -0.00000 0.00000
							CHANNELS 3 Zrotation Yrotation Xrotation
							JOINT LeftHand
							{
								OFFSET 3.00291 -0.00000 -0.00000
								CHANNELS 3 Zrotation Yrotation Xrotation
								JOINT LeftFingerBase
								{
									OFFSET 0 0 0
									CHANNELS 3 Zrotation Yrotation Xrotation
									JOINT LeftHandIndex1
									{
										OFFSET 0.45092 -0.00000 -0.00000
										CHANNELS 3 Zrotation Yrotation Xrotation
										End Site
										{
											OFFSET 0.36355 -0.00000 -0.00000
										}
									}
								}
								JOINT LThumb
								{
									OFFSET 0 0 0
									CHANNELS 3 Zrotation Yrotation Xrotation
									End Site
									{
										OFFSET 0.36910 -0.00000 0.36910
									}
								}
							}
						}
					}
				}
				JOINT RightShoulder
				{
					OFFSET 0 0 0
					CHANNELS 3 Zrotation Yrotation Xrotation
					JOINT RightArm
					{
						OFFSET -2.80452 1.90886 -0.21152
						CHANNELS 3 Zrotation Yrotation Xrotation
						JOINT RightForeArm
						{
							OFFSET -4.86725 -0.00000 0.00000
							CHANNELS 3 Zrotation Yrotation Xrotation
							JOINT RightHand
							{
								OFFSET -3.17144 -0.00000 -0.00000
								CHANNELS 3 Zrotation Yrotation Xrotation
								JOINT RightFingerBase
								{
									OFFSET 0 0 0
									CHANNELS 3 Zrotation Yrotation Xrotation
									JOINT RightHandIndex1
									{
										OFFSET -0.41937 -0.00000 -0.00000
										CHANNELS 3 Zrotation Yrotation Xrotation
										End Site
										{
											OFFSET -0.33810 -0.00000 -0.00000
										}
									}
								}
								JOINT RThumb
								{
									OFFSET 0 0 0
									CHANNELS 3 Zrotation Yrotation Xrotation
									End Site
									{
										OFFSET -0.34327 -0.00000 0.34327
									}
								}
							}
						}
					}
				}
			}
		}
	}
}
MOTION
Frames: 9
Frame Time: 0.0204082
0.00 0.00 0.00 4.7533 -3.2498 100.3360 0.0000 0.0000 0.0000 -20.3362 -6.4318 -30.1053 27.4131 18.6279 112.1624 0.8662 -2.7834 18.7973 0.3805 3.9616 10.9686 0.0000 0.0000 0.0000 13.4943 -3.8016 -35.6552 -27.4468 -18.6148 112.2681 -3.2494 -6.1363 32.8952 -1.1553 -6.8243 19.1959 6.9910 0.6301 -6.6486 -5.3409 0.4677 -5.5185 -9.6083 -0.0764 -1.9618 3.0407 -1.2607 -14.5872 1.2602 -2.9895 31.3988 -0.4854 -0.7543 12.8830 0.0000 0.0000 0.0000 83.2917 -48.4142 -85.6686 15.8005 -25.2494 -3.5604 -0.0000 0.0000 -9.7207 53.2344 -13.7371 -17.6317 -7.1250 0.0000 -0.0000 16.6587 8.4916 -14.6671 0.0000 0.0000 0.0000 -68.8342 40.0426 -64.3397 -19.9983 30.6403 -5.5305 0.0000 0.0000 5.4690 -35.1451 1.6165 -1.1377 7.1250 -0.0000 -0.0000 -6.6130 -27.9821 -2.7540
0.00 0.00 0.00 2.5695 -2.8130 106.9020 0.0000 0.0000 0.0000 -15.2994 -19.4032 -33.6373 23.6021 19.6860 100.5851 1.1058 0.6169 19.6870 0.8175 5.7692 16.1163 0.0000 0.0000 0.0000 13.6132 1.0835 -38.9259 -25.3763 -19.2924 105.8994 -3.9598 -3.0041 37.0692 -0.3700 -3.9073 10.8159 5.7664 2.0221 -11.5294 -6.4720 2.2208 -8.2814 -9.9765 0.7655 -1.8426 3.9366 -3.1553 -16.1505 4.1773 -5.9223 14.5420 0.0866 -2.2124 7.1488 -0.0000 0.0000 0.0000 65.7365 -45.1189 -69.6877 9.3984 -15.7931 -1.3064 -0.0000 -0.0000 1.5245 45.3272 -11.4930 -11.3946 -7.1250 0.0000 -0.0000 12.3019 14.1072 -9.1499 -0.0000 0.0000 0.0000 -42.0766 26.6383 -38.5698 -18.0899 28.2721 -4.5917 0.0000 0.0000 16.3531 -37.9194 6.2588 -4.8544 7.1250 -0.0000 -0.0000 -8.1496 -22.0921 -4.5311
0.00 0.00 0.00 2.3050 -2.7409 108.6720 0.0000 0.0000 0.0000 -14.5275 -22.0251 -32.4880 18.4773 19.9443 85.5441 0.9232 5.6654 17.1423 0.9132 6.0891 17.0433 0.0000 0.0000 0.0000 15.2638 3.9957 -37.1996 -20.4325 -19.9955 91.2648 -3.1333 -5.6993 32.3291 -0.4270 -4.1940 11.6230 4.9053 2.2325 -12.8408 -6.3515 2.5407 -9.2598 -9.2884 0.9329 -2.1440 4.1397 -3.3703 -15.4198 3.6224 -5.8347 8.7301 -0.0373 -2.4502 5.1368 -0.0000 0.0000 0.0000 54.7551 -44.0023 -61.7728 9.2491 -15.5566 -1.2661 -0.0000 -0.0000 1.7327 44.7016 -8.7148 -8.5277 -7.1250 0.0000 -0.0000 12.4583 17.9725 -8.2028 -0.0000 0.0000 0.0000 -32.9749 23.7141 -34.8702 -17.6971 27.7676 -4.4072 0.0000 0.0000 9.9103 -37.3203 2.6475 -2.0168 7.1250 -0.0000 -0.0000 -8.1616 -26.6326 -3.6719
0.00 0.00 0.00 1.2530 -2.6985 110.9870 0.0000 0.0000 0.0000 -13.1300 -25.6219 -29.0770 7.8623 16.0170 52.0650 0.9803 12.0201 18.3839 1.0586 6.5418 18.3648 0.0000 0.0000 0.0000 16.6296 9.9492 -32.7832 -9.2523 -16.9673 56.9585 -1.7449 -12.9512 24.0338 -0.4026 -4.0735 11.2835 0.7244 3.6821 -14.4395 -5.3828 4.9809 -12.3728 -5.6014 2.3982 -4.5706 3.9793 -4.9756 -11.7213 1.3004 -7.3163 1.8667 -0.6819 -3.5787 2.5246 0.0000 -0.0000 0.0000 29.1140 -43.1274 -24.1806 15.5748 -24.9407 -3.4647 -0.0000 0.0000 -34.9237 41.6352 0.4444 0.3951 -7.1250 0.0000 -0.0000 11.8859 30.4522 -4.3052 0.0000 -0.0000 0.0000 -16.0560 17.1156 -23.1237 -21.9912 32.9671 -6.5811 0.0000 -0.0000 -17.3523 -34.0162 -7.6156 5.1112 7.1250 -0.0000 -0.0000 -6.2515 -39.0709 -0.9174
0.00 0.00 0.00 1.3323 -3.0027 110.9010 0.0000 0.0000 0.0000 -12.7809 -27.8452 -27.5677 4.0450 12.2200 36.5147 0.9930 13.3339 18.8219 1.1884 6.9178 19.4721 0.0000 0.0000 0.0000 15.8471 14.4918 -28.9382 -4.2038 -12.4268 37.2590 -1.2439 -14.7279 21.0424 -0.2936 -3.4844 9.6305 0.2015 3.4489 -14.5054 -5.3198 4.7031 -12.7898 -5.2990 2.2802 -5.0701 3.3860 -4.8134 -13.1731 2.0991 -7.0799 -0.1085 -0.3203 -3.4834 2.1775 0.0000 -0.0000 0.0000 16.5262 -40.9015 -10.2676 23.2965 -34.4115 -7.3052 -0.0000 0.0000 -51.0267 38.4841 2.4434 1.9411 -7.1250 0.0000 -0.0000 9.6476 32.9904 -2.8740 0.0000 -0.0000 0.0000 -6.5547 18.9695 -20.7726 -28.6607 39.7174 -10.5432 0.0000 -0.0000 -39.3723 -30.8679 -12.0775 7.1287 7.1250 -0.0000 -0.0000 -3.3653 -43.9515 -0.0872
0.00 0.00 0.00 3.4764 -1.7321 95.4868 0.0000 0.0000 0.0000 -19.4758 -15.6040 -25.3055 4.2627 12.5020 37.5319 0.3720 9.6723 11.9512 1.8738 8.5982 24.5463 0.0000 0.0000 0.0000 20.5927 9.7988 -22.3687 -3.0480 -10.7723 31.5158 -1.0825 -10.1525 18.8472 -0.4558 -4.3308 12.0093 1.5430 1.7681 -5.3238 -5.4460 2.0807 -13.7158 -6.9299 0.5541 -11.5540 3.8737 -3.7312 -19.6169 -1.9281 -5.7925 -3.4417 -1.7612 -3.0350 2.0796 0.0000 -0.0000 0.0000 -26.6489 1.4907 62.6213 56.0951 -55.1763 -31.1131 -0.0000 0.0000 -42.2470 46.8929 -15.5872 -16.0174 -7.1250 0.0000 -0.0000 12.3924 8.1891 -10.7625 0.0000 -0.0000 0.0000 49.0912 -13.1529 37.4319 -81.0651 59.6962 -52.2700 0.0000 -0.0000 -8.8940 -30.1621 12.5943 -7.2216 7.1250 -0.0000 -0.0000 -1.9833 -15.4970 -1.3821
0.00 0.00 0.00 4.1869 -1.6706 94.0438 0.0000 0.0000 0.0000 -20.8926 -11.0966 -22.9890 8.0298 16.1412 52.6701 0.4928 6.3658 12.6067 1.0892 6.6327 18.6318 0.0000 0.0000 0.0000 21.5251 4.6177 -22.9378 -5.9556 -14.3852 44.8033 -1.4808 -7.2025 21.7769 -0.4405 -4.2587 11.8057 1.6418 0.5413 -4.8690 -5.2971 0.3159 -13.9498 -6.7759 -0.3965 -12.3632 3.5668 -2.5594 -22.0235 -0.3106 -4.3158 -0.3910 -1.0342 -2.1701 3.1947 0.0000 -0.0000 0.0000 -26.0402 15.4393 69.4458 21.6488 -32.5778 -6.3957 -0.0000 0.0000 -23.0059 40.5515 -16.4376 -13.6105 -7.1250 0.0000 -0.0000 8.2720 8.9370 -6.9615 0.0000 -0.0000 0.0000 49.5434 -23.5826 32.4410 -44.5101 50.5262 -21.8599 0.0000 -0.0000 -23.6847 -25.7987 8.2697 -3.9772 7.1250 -0.0000 -0.0000 0.7700 -20.8098 0.4462
0.00 0.00 0.00 4.6206 -1.3446 93.2571 0.0000 0.0000 0.0000 -20.6398 -5.8758 -22.3159 14.0926 19.1419 72.4872 0.5506 6.1418 13.2681 1.1212 6.7263 18.9070 0.0000 0.0000 0.0000 21.9189 -0.4320 -23.6183 -9.9990 -17.4093 59.4851 -1.8990 -8.3129 24.7158 -0.8615 -5.9187 16.5488 0.9307 -0.2769 -5.7576 -4.6662 -0.8088 -14.2327 -5.6007 -0.8496 -12.2771 0.7269 -2.1851 -23.4409 2.7765 -3.4328 4.4450 0.4063 -1.4560 5.0562 -0.0000 -0.0000 0.0000 -24.2270 22.9550 39.3958 7.6653 -13.0088 -0.8752 -0.0000 -0.0000 15.0637 20.9523 -10.9113 -4.1456 -7.1250 0.0000 -0.0000 -4.3194 18.3356 2.7491 -0.0000 -0.0000 0.0000 45.1506 -25.7889 13.2688 -20.0956 30.7574 -5.5802 0.0000 -0.0000 -20.3727 -9.1159 4.3492 -0.6972 7.1250 -0.0000 -0.0000 13.1388 -25.5456 6.3477
0.00 0.00 0.00 4.6374 -1.2780 92.9538 0.0000 0.0000 0.0000 -20.1935 -3.2625 -21.7227 17.0705 19.7930 81.4062 0.5941 5.2837 13.7263 1.0970 6.6556 18.6990 0.0000 0.0000 0.0000 21.5747 -2.9042 -23.7437 -12.2070 -18.4768 66.6434 -2.0153 -8.6933 25.4770 -0.9397 -6.1743 17.2910 0.4814 -0.3826 -6.2392 -4.3314 -0.9300 -14.4708 -4.9736 -0.8371 -12.2605 -0.2791 -2.1925 -23.8415 3.4022 -3.3062 6.9942 0.7646 -1.3197 5.9671 -0.0000 0.0000 0.0000 -21.5877 23.2541 8.3814 5.5374 -9.4885 -0.4599 -0.0000 -0.0000 29.3412 18.5840 -8.6727 -2.9024 -7.1250 0.0000 -0.0000 -5.9842 20.8598 3.4798 -0.0000 0.0000 0.0000 40.9811 -25.4926 -3.7734 -14.1182 22.9034 -2.8739 0.0000 -0.0000 -13.7618 -5.8398 2.0826 -0.2130 7.1250 -0.0000 -0.0000 15.8518 -27.7520 6.8934
